<?xml version="1.0" encoding="UTF-8"?><svg id="b" xmlns="http://www.w3.org/2000/svg" xmlns:xlink="http://www.w3.org/1999/xlink" viewBox="0 0 400.54 80.19"><defs><linearGradient id="d" x1="380.68" y1="48" x2="400.54" y2="48" gradientUnits="userSpaceOnUse"><stop offset=".3" stop-color="#fbb040"/><stop offset=".9" stop-color="#59ba47"/></linearGradient><linearGradient id="e" x1="380.68" y1="67.34" x2="400.54" y2="67.34" gradientUnits="userSpaceOnUse"><stop offset=".39" stop-color="#fbb040"/><stop offset=".9" stop-color="#ee2724"/></linearGradient></defs><g id="c"><path d="M0,0h28.48v8.23H10.55v12.55h13.82v8.23h-13.82v18.98H0V0Z" fill="#fbb040"/><path d="M30.97,0h9.91v47.99h-9.91V0Z" fill="#fbb040"/><path d="M47.67,12.48h9.91v22.81c0,2.3.21,3.84.63,4.61s1.34,1.16,2.74,1.16c1.29,0,2.27-.32,2.94-.95s1.07-1.51,1.21-2.62c.14-1.11.21-3.41.21-6.88V12.48h9.91v35.51h-9.32v-4.85c-1.41,2.41-2.81,3.95-4.2,4.61-1.39.66-3.04.98-4.94.98-2.55,0-4.51-.53-5.87-1.58-1.36-1.05-2.24-2.39-2.64-4.01-.4-1.62-.6-4.14-.6-7.56V12.48Z" fill="#fbb040"/><path d="M109.83,31.89h-18.6v1.96c0,3.18.43,5.3,1.3,6.38s2,1.61,3.4,1.61c3.01,0,4.71-2.02,5.08-6.05l8.82.56c-1.57,8.25-6.26,12.38-14.08,12.38-4.82,0-8.49-1.63-10.99-4.89s-3.76-7.62-3.76-13.08c0-6.16,1.33-10.87,3.99-14.12,2.66-3.25,6.22-4.87,10.69-4.87,4.03,0,7.39,1.44,10.1,4.31,2.7,2.87,4.06,8.14,4.06,15.8ZM100.48,26.16c.02-.42.04-.75.04-.98,0-4.57-1.54-6.86-4.62-6.86s-4.56,2.61-4.59,7.84h9.18Z" fill="#fbb040"/><path d="M115.63,12.48h9.39v4.85c1.64-3.7,4.61-5.55,8.89-5.55,2.32,0,4.24.52,5.75,1.56,1.51,1.04,2.48,2.37,2.9,3.99s.63,4.08.63,7.38v23.27h-9.91v-23.27c0-2.39-.3-3.87-.91-4.43s-1.43-.84-2.46-.84c-1.78,0-2.95.54-3.52,1.63s-.84,3.12-.84,6.1v20.81h-9.91V12.48Z" fill="#fbb040"/><path d="M151.45,20.29h-3.94v-7.8h3.94V1.58l9.63-.32v11.21h6.54v7.8h-6.54" fill="#fbb040"/><path d="M178.36,0h15.08c2.93,0,5.17.14,6.73.4,1.56.27,3.13,1,4.73,2.18,1.59,1.18,2.84,2.8,3.74,4.85.9,2.05,1.35,4.35,1.35,6.91,0,6-2.25,10.22-6.75,12.66l8.82,20.99h-11.48l-6.42-18.98h-5.27v18.98h-10.55V0ZM188.91,7.77v13.46h4.64c4.12,0,6.19-2.31,6.19-6.93,0-1.59-.3-2.9-.91-3.92s-1.32-1.71-2.13-2.07c-.81-.36-2-.54-3.57-.54h-4.22Z" fill="#231f20"/><path d="M243.54,31.89h-18.6v1.96c0,3.18.43,5.3,1.3,6.38s2,1.61,3.4,1.61c3.01,0,4.71-2.02,5.08-6.05l8.82.56c-1.57,8.25-6.26,12.38-14.08,12.38-4.82,0-8.49-1.63-10.99-4.89s-3.76-7.62-3.76-13.08c0-6.16,1.33-10.87,3.99-14.12,2.66-3.25,6.22-4.87,10.69-4.87,4.03,0,7.39,1.44,10.1,4.31,2.7,2.87,4.06,8.14,4.06,15.8ZM234.19,26.16c.02-.42.04-.75.04-.98,0-4.57-1.54-6.86-4.62-6.86s-4.56,2.61-4.59,7.84h9.18Z" fill="#231f20"/><path d="M272.76,21.02l-7.07,2.11c-.94-3.21-2.67-4.82-5.2-4.82-2.06,0-3.09,1.03-3.09,3.09,0,1.17.39,2.06,1.16,2.67.77.61,2.37,1.34,4.78,2.18,2.72.96,4.71,1.81,5.98,2.53,1.27.73,2.33,1.82,3.2,3.29.87,1.46,1.3,3.15,1.3,5.04,0,3.28-1.18,6.04-3.55,8.26s-5.67,3.34-9.91,3.34c-7.99,0-12.42-3.53-13.29-10.58l7.88-1.27c.66,3.54,2.52,5.31,5.59,5.31,2.62,0,3.94-1.1,3.94-3.3,0-1.17-.39-2.06-1.16-2.67-.77-.61-2.27-1.27-4.5-1.97-4.08-1.31-6.88-2.89-8.4-4.75-1.52-1.85-2.29-4-2.29-6.43,0-3.42,1.2-6.16,3.6-8.23,2.4-2.06,5.41-3.09,9.02-3.09,6.3,0,10.31,3.09,12.02,9.28Z" fill="#231f20"/><path d="M278.28,12.48h9.91v22.81c0,2.3.21,3.84.63,4.61s1.34,1.16,2.74,1.16c1.29,0,2.27-.32,2.94-.95s1.07-1.51,1.21-2.62c.14-1.11.21-3.41.21-6.88V12.48h9.91v35.51h-9.32v-4.85c-1.41,2.41-2.81,3.95-4.2,4.61-1.39.66-3.04.98-4.94.98-2.55,0-4.51-.53-5.87-1.58s-2.24-2.39-2.64-4.01-.6-4.14-.6-7.56V12.48Z" fill="#231f20"/><path d="M313.08,0h9.91v47.99h-9.91V0Z" fill="#231f20"/><path d="M331.75,1.58l9.63-.32v11.21h6.54v7.8h-6.54v13.04c0,2.41.05,3.98.16,4.69.11.72.46,1.31,1.05,1.79s1.6.72,3.01.72c.75,0,1.69-.02,2.81-.07v7.52c-2.2.49-4.22.74-6.05.74-3,0-5.3-.58-6.89-1.72-1.59-1.15-2.61-2.59-3.06-4.32s-.67-4.49-.67-8.26v-14.13h-3.94v-7.8h3.94V1.58Z" fill="#231f20"/><path d="M375.77,21.02l-7.07,2.11c-.94-3.21-2.67-4.82-5.2-4.82-2.06,0-3.09,1.03-3.09,3.09,0,1.17.39,2.06,1.16,2.67.77.61,2.37,1.34,4.78,2.18,2.72.96,4.71,1.81,5.98,2.53,1.27.73,2.33,1.82,3.2,3.29.87,1.46,1.3,3.15,1.3,5.04,0,3.28-1.18,6.04-3.55,8.26s-5.67,3.34-9.91,3.34c-7.99,0-12.42-3.53-13.29-10.58l7.88-1.27c.66,3.54,2.52,5.31,5.59,5.31,2.62,0,3.94-1.1,3.94-3.3,0-1.17-.39-2.06-1.16-2.67-.77-.61-2.27-1.27-4.5-1.97-4.08-1.31-6.88-2.89-8.4-4.75-1.52-1.85-2.29-4-2.29-6.43,0-3.42,1.2-6.16,3.6-8.23,2.4-2.06,5.41-3.09,9.02-3.09,6.3,0,10.31,3.09,12.02,9.28Z" fill="#231f20"/><path d="M161.8,34.3v13.04c0,2.41.05,3.98.16,4.69.11.72.46,1.31,1.05,1.79s1.6.72,3.01.72c.75,0,1.69-.02,2.81-.07v8.26c-2.21,0-3.78,0-5.61,0-3,0-5.74-.58-7.33-1.72-1.59-1.15-2.61-2.59-3.06-4.32s-.67-4.49-.67-8.26v-14.13h0v-7.8h0v-10.9l9.63-.32v11.21" fill="#fbb040"/><rect x="168.83" y="54.48" width="217.05" height="8.26" fill="#fbb040"/><polygon points="400.54 46.83 386.52 60.85 380.68 55.01 400.54 35.15 400.54 46.83" fill="url(#d)"/><polygon points="400.54 80.19 380.68 60.33 386.52 54.48 400.54 68.5 400.54 80.19" fill="url(#e)"/></g></svg>